/* XPM */
static char *result[] = {
/* columns rows colors chars-per-pixel */
"50 50 53 1 ",
"  c #665D3B",
". c #6D6B2D",
"X c #6F702A",
"o c #72752C",
"O c #76782F",
"+ c #6E6B35",
"@ c #706E30",
"# c #6F7135",
"$ c #737531",
"% c #777931",
"& c #787A31",
"* c #74763A",
"= c #77783C",
"- c #797B3A",
"; c #695E4A",
": c #6B5F50",
"> c #6D6544",
", c #6F6B45",
"< c #6C634B",
"1 c #6F694D",
"2 c #716D4D",
"3 c #747542",
"4 c #787942",
"5 c #74734D",
"6 c #777849",
"7 c #7B7C4E",
"8 c #6D6353",
"9 c #6F6659",
"0 c #706952",
"q c #726A5D",
"w c #757552",
"e c #7A7A54",
"r c #76745D",
"t c #78775B",
"y c #7B7B5B",
"u c #6F6961",
"i c #736C62",
"p c #767264",
"a c #787763",
"s c #7C7C64",
"d c #79756A",
"f c #7D7B6E",
"g c #7D7C71",
"h c #807F6C",
"j c #807F73",
"k c #80805D",
"l c #828264",
"z c #82826A",
"x c #838274",
"c c #888777",
"v c #86857B",
"b c #88877D",
"n c #89887D",
/* pixels */
"o+0qq2$ooOoooooooooooOoOOooooooooooooooooooooooooo",
".1xvvl$ooXoOooooooooXooooooooooooooooooooooooooooo",
".0vvbs$ooooXoooooooooooooooooooooooooooooooooooooo",
".0vvb2.ooooooooooooooooooooooooooooooooooooooooooo",
".:jjj<ooooooooooo&oooooooooooooooooooooooooooooooo",
".;jhd>@ooooooooooOoooooooooooooooooooooooooooooooo",
".8vvb,Xooooooooooooooooooooooooooooooooooooooooooo",
".8vvb>Xooooooooooooooooooooooooooooooooooooooooooo",
".0ccj0@Ooooooooooooooooooooooooooooooooooooooooooo",
".8bjj>@Ooooooooooooooooooooooooooooooooooooooooooo",
"@0bjj>X@oooooooooooooooooooo&ooooooooooooooooooooo",
"@qjbj>XoOoOoooooooooooooooooOooooooooooooooooooooo",
".<hji;OOoOOooooooooooooooooXoooooooooooooooo%ooooo",
".<jjh;oooOOoooooooooooooooooooooooooooooooo%o%%ooo",
".0jjj<ooXoooooooooooooooooooooooooooooooooooo%oooo",
".0cbj<XooooooooooOooooooooooooooooooooo%oooooooooo",
"+0vvv,XOooooooXOO&o&Ooooooooooooooooooo%%ooooooooo",
".8vvv,XXoooooooo&OoOXooooooooooooooooooooooooooooo",
".0vvv>XOoooO%ooooooooooooooooooooooooooooooooooooo",
".0vbb>Xoo%oOOooooooooooooooooooooooooooooooooooooo",
".8xxg<.ooOoooooooooooooooooooooooooooooooooooooooo",
".<dgd+X#$$$oooooooooooXo$$oOoOoooo$$$ooooooooooooo",
"rqvvvqtayaay6oooooooooohzllzll4Oessssss7oooooooooo",
"pqvvvudgggggsooooooooo&cvvbbbnz-xjxjjjjhoooooooooo",
"dqjvvudjffggs$oooooooo=cvbbbvvz-zjjjjjjhoooooooooo",
"dqvvbudfgffgs#oooooooo=cbvvcbbz=jjjjjjgzoooooooooo",
"pqvvvqdfggggsOXooooooX*cvvcvnnz-jjjjjjjzoooooooooo",
"duvvj86fgggjsOOooooooo*cnnnnnnz=jjvjjxjzoooooooooo",
"q:djd *irrar*oooooooooo5ssssss5$wararar5oooooooooo",
"0qjjvqeyyyyy4oooooooooO6ttttyt4o3wwwwww3oooooooooo",
"dqvvvijbnvvbzOoooooooo*zgjxjjxs=ffgggggs$ooooooooo",
"dqvvbpjbvcvnzOoooooooo*xjjgjjgz=fggggggs$ooooooooo",
"dqcvjhjjbbcnc&OXoooooo=xjjjjjjz*fgfffggs$ooooooooo",
"dqxvjijbnjcnh&XOoooooo$xjjjjjjz*fhfgfgga$ooooooooo",
"dqvvjhjhjnnnhOoooooooo*xjzjjxgz*fggggggs$ooooooooo",
"pqvbc0h-hhjjhOooooooooothfffffw$wdfafadwoooooooooo",
"2;jjh;153*hhoXooooooooo3ww53###o3w55w55*oooooooooo",
"hqjjj9djhhhjhXoooooooo$hjjjy$$o$zgjjjjje$o$ooooooo",
"jijjbujjjjhjhooooooooo*zjjjjhs4=jjjjjjje$Ooooooooo",
"ducbbijjjjhhhooooooooo=hjjjjgjs=hjjjjjjz$Ooooooooo",
"jujbvigjjjjjhOoooooooo=xjjjjjjh=hjjjjjjhoooooooooo",
"hibbvifjjjjh5@oooooooo*jjjjjjjh=xjjjjjjz$ooooooooo",
"hqjbvidjjjh3oooooooooo$sjjgjjjt$sjjjjjjyoooooooooo",
"8:jjf;2w23,*oooooooooO$*555555*o*ww5w5w$oooooooooo",
"p8jjj9ahheshhoXooooooo$yfdffffe=sxcxxxxkoooooooooo",
"dqbjb0tfwtjjhXoooooooo*fggfffgs=xnnnncncoooooooooo",
"dqjbb1,*6hjjhOoooooooo*hggffggs4cnxnccnz$ooooooooo",
"picbbswsjjhhhOoooooooo#fgfffggs=cnxncxlz$$oooooooo",
"dqbbbvjjjjjjh@ooooooo@*hggfgggs=cccncl-$oooooooooo",
"d:iuuijjvjjvs$o$oooooo*sggggggs=xnnx3$oooooooooooo"
};
