/* XPM */
static char *result[] = {
/* columns rows colors chars-per-pixel */
"50 50 95 2 ",
"   c #2F1713",
".  c #2F1813",
"X  c #301713",
"o  c #321A13",
"O  c #381F16",
"+  c #372116",
"@  c #3D2216",
"#  c #372019",
"$  c #392118",
"%  c #422517",
"&  c #40261A",
"*  c #452C1D",
"=  c #482E1E",
"-  c #45361B",
";  c #472F21",
":  c #482E20",
">  c #4D3424",
",  c #4A3429",
"<  c #4F392A",
"1  c #523A26",
"2  c #523C2B",
"3  c #523F31",
"4  c #4E421F",
"5  c #57441F",
"6  c #564325",
"7  c #554B21",
"8  c #5A4A24",
"9  c #554328",
"0  c #5C4A2B",
"q  c #5B5323",
"w  c #5F5A25",
"e  c #5F5128",
"r  c #564231",
"t  c #5A4535",
"y  c #5D4C34",
"u  c #564639",
"i  c #5B4739",
"p  c #57493D",
"a  c #5A4A3D",
"s  c #605323",
"d  c #635F27",
"f  c #62542E",
"g  c #645A2C",
"h  c #614D37",
"j  c #625233",
"k  c #685C34",
"l  c #62513C",
"z  c #676326",
"x  c #666129",
"c  c #6A6529",
"v  c #6D6B2B",
"b  c #706F2C",
"n  c #6F712B",
"m  c #73742D",
"M  c #757730",
"N  c #777930",
"B  c #797B32",
"V  c #574B40",
"C  c #5C4D42",
"Z  c #5D5146",
"A  c #5E554B",
"S  c #604E40",
"D  c #625242",
"F  c #63564A",
"G  c #61584F",
"H  c #625C54",
"J  c #6B5E51",
"K  c #655F58",
"L  c #646057",
"P  c #6A6057",
"I  c #66615A",
"U  c #69645D",
"Y  c #726554",
"T  c #756A5A",
"R  c #786B5A",
"E  c #6C6760",
"W  c #6D6961",
"Q  c #746C62",
"!  c #786D60",
"~  c #736F68",
"^  c #767166",
"/  c #7A7166",
"(  c #76726A",
")  c #7A766B",
"_  c #7D796F",
"`  c #7E7B71",
"'  c #807A6F",
"]  c #817E74",
"[  c #838176",
"{  c #85837A",
"}  c #88867D",
"|  c #8A887E",
" . c #898780",
".. c #8C8A82",
"X. c #908E87",
/* pixels */
"m m m m m m m m m m m m m m m m m m m m m m m m m m m m m m m m b m m m m m m m m m m m m m m m b N ",
"m m m m m m m m m m m m m m m b m m m m m m m m m m m m m b m m m m m m m m m m m m m m m m m m n m ",
"m m m m m m m m m m m m m m m m m m m m m m m m m m m m m m m m m m m m m m m m m m m m m m m m m v ",
"m m m m m m m m m m m m m m m m m m m m m m m m m m m m m m m m m m m m m m m m b m m m b m m m m m ",
"b m m m m m m m m m m m m m m m m m m m m m m m m m m b m m m m m m m m m m m m m m m m m m m m m m ",
"m m m m m m m m m m m m m m m m m m m m m m b m m m m m m m m m m m m m m m m m m m m m m m m m m m ",
"m m m m m m m m b m m m m m m m m m m m m m m m m m m m m m m m m m m m m m m m m m m m m m m m m m ",
"m m m m m m m m m m m m c f f f j f f f f f f f f f f f f f f f f f f g b m m m m m m m m m m m m m ",
"m m m m m m m m m m m g P ) / / ^ Q Q Q Q Q Q W ! Q / / ! Q Q Q Q ( / R 0 z m m m m m m m m m m m m ",
"m m m m m m m m m m g Y ] ..| } { { { { { { { [ { {  . .{ { { { { } X.| P h v m m m m m m m m m m m ",
"m m m m m m b b b c D )  . . .{ { { { { { { [ { { { { { { { { { { {  ...( F f b v m m m m m m m m m ",
"m m m m m m k l l h F _  ..... .} {  .{ { {  .{ { } } } } } } {  ..... .) K t y y j v m m m m m m m ",
"m m m m m v Y  .] ] ) ] ` ( W E W U Q U E W W E W Q ( ) ( ( Q W E W ~ ~  .~ Q ] _ ) k m m m m m m m ",
"m m m m m b R ..{ ]  .` ~ E E E U U U U I U E E E U ~ ~ W U U E U E E W ~ ] ) ] { ] k m m m m m m m ",
"m m m m m c R X... .{ ~ E K K K U U U U U I U U U U U U E U E U E U U E E ` ]  .| ] k m m m m m m m ",
"m m m m m b Y  .} { ( U E E E K I U I U U I U U U E U U U U U U E K E E E E ' ] } ' g m m m m m m m ",
"m m m m m c D ^ E E I U U U I U I U U U U U U U U U U I I I I U U U U U E E E E W U e M m m m m m m ",
"m m m m m c Z W U I U U I L U I U I U K I I I U U U I U I I I I I U U U U U U U U I e m m m m m m m ",
"m m m m m c Z U I I L U U K U E K K I U I U I I I U K I I I I I U U U U I U I U U P e m m m m m m m ",
"m m m m m c l W U L K K K U E U H K U K U I I I K L L L I I I I I L U U I I I U U L e m m m m m m m ",
"m m m m m c l W I H H H K I U A G I I I I I I K H K I L I L I K H L L I I I K I U P 8 m m m m m m m ",
"m m m m m c l U K H H H K K Z A K L I P L K I I H H K L I L H G G K L L I I I I U P e m m m m m m m ",
"m m m m m c y H A A A A Z C < < H G H G G G G G A A H G H A A A Z A G H G G H H I H 8 m m m m m m m ",
"m m m m m m g 1 > < < > = * $ O * = = = = = = * ; - * = * ; * * = = = = : > 1 < > * @ q c c c n m m ",
"m m m m m m v s 9 A Z ; o O O O O O $ $ O $ $ $ $ $ O $ $ O O O + + O O @ u F C & o . o + + + x m m ",
"m m m m m m k y i Z Z t 2 r i i a a l a C l C S S S l S C i i a y a i i t a Z a r 3 # . . . . x m m ",
"m m m m m v Y [ T F F ^ ) ) ) ) ) ) ) ) ) ) _ ) ) ) ) ) Q Q Q ( ) _ ) ) _ J D F / ) ;   . . o x m B ",
"n m m m m v Y { ' _ _ _ ] ] ` _ _ ' _ ` _ ] ` ` ` ` ` _ _ ) ( _ _ _ _ _ _ _ _ _ ' ' ,   . . o z m m ",
"B m m m m v Y { ] ' ' ' _ ] ] ] ] ] ` ] ` ] ` ` ` _ ] ] ` ] ` ] ` ` ` _ _ ` ` ` [ ' > . .   & c m n ",
"B M m m m v Y { [ ] [ ] ] ] ] ] ] ] ] ] ] ` ` ` ] ] ] ] ] ] ` ] ] [ ] ] ] ] ] ` [ ' , . . + d m m m ",
"B m m m m v Y { [ { [ [ { } { ] ] { ] { ] ` ` ] ] ] ] ] [ ] [ ] [ [ [ [ [ [ [ [ ] ] ,   o 7 m m m m ",
"m m m m m v Y | [ [ { { } } ] { { ] { { [ { ] ] ] ] ] [ [ [ [ [ [ [ [ [ [ [ { [ { ] ,   - n m m m m ",
"m m m m m v T ..{ { { { { { [ [ { { { [ { [ [ [ [ [ [ { ] { { ] { { { { { { ] {  .[ ,   - m m m m m ",
"m m m m m v T ..{ { { { } } } } { { { { { { { { {  .} .. .] { { { { { { } ] {  ...{ ,   6 m m m m m ",
"m m m m m v R X... .| | } } | ....}  . .} } { } } ..X... .} {  . .{ { { }  . ...X.| <   5 m m m m m ",
"m m m m m v Y X... .{ { { { _ ) ` { { ] [ { { } }  .} }  . .] ] ] { { {  .] }  ...] , X 4 m m m m m ",
"m m m m m c D W K H H H K K K U U K K H K K U I U U K H K H H K K K K K K K K K U I @   4 m m m m m ",
"M B M m m c a I H G H H G G H K H H H H H H H H K K H H H H H H H H H H H H H H K K *   4 m m m m m ",
"m B B m m v j a p p p p p a p p p V a a p V a a a V p a u p p i V V p a V p p u p p $ . 5 m m m m m ",
"m m N m m B c 6 > < < * @ @ @ @ % @ @ @ @ @ @ @ @ @ % O O % % O @ % % O % > < < % O .   4 m m m N m ",
"m n n n B B M c 2 p p ;       X . . . . . . . .     . . . . . . . . . . O 3 p u % X     4 m m B B m ",
"m m n N m m m c 2 V p - X       . . . . . . . .   . . . . . . . . . . . O r V p & X . . 4 m m m B m ",
"m m m m n m m c u A A ; o X X X o o o o   . . . X X o . X X . . X o . . O p G Z * . . + d m m m n m ",
"m m m m m m m z t L G 9 w w w w w w w d w w w w w w w w w w w w w w w w 5 a K Z 6 w w d m m m m n n ",
"m m m m m m m m s 1 1 z m M m m m m m m N m m N N M m M m M m m M m M m n 8 1 6 c m m m m m m m m m ",
"m m m m m m m m b c v m m m m m m m m m m m m m B m m m m m m m m m m m m v v v m m m m m m m m m m ",
"m m m m m m m m m N M m m m m m n m m m m m m m B m B B m m m m m m m m m m m m m m m m m m m m m m ",
"m m m m m m m m m B M m m m m m m m m m m N B m n M B B m m m m m m m m m m m m m m m m m m m m m m ",
"m m m m m m m m M N m m m m m m m m m m m m N m m N N m m m m m m m m m m m m m m m m m m m m m m m ",
"m m m m m m m m m m n m m m m m m m m m m m m N m N m B M m m m m m m m m m m m m m m m m m m m m m "
};
