/* XPM */
static char *result[] = {
/* columns rows colors chars-per-pixel */
"50 50 176 2 ",
"   c #666421",
".  c #696822",
"X  c #6F7024",
"o  c #727522",
"O  c #767825",
"+  c #7A7923",
"@  c #74762C",
"#  c #76782A",
"$  c #797A2C",
"%  c #6C6839",
"&  c #757632",
"*  c #757935",
"=  c #797B34",
"-  c #76773B",
";  c #77783C",
":  c #79793B",
">  c #2A3F70",
",  c #423F6D",
"<  c #2B4072",
"1  c #2F4578",
"2  c #324374",
"3  c #314779",
"4  c #34497B",
"5  c #384C7A",
"6  c #3D507E",
"7  c #716C4F",
"8  c #777743",
"9  c #787844",
"0  c #797945",
"q  c #777749",
"w  c #74794C",
"e  c #7A7A4C",
"r  c #747251",
"t  c #787753",
"y  c #717953",
"u  c #7B7B54",
"i  c #72795A",
"p  c #7C7C5C",
"a  c #46426F",
"s  c #4E426E",
"d  c #56406A",
"f  c #4C4976",
"g  c #65466D",
"h  c #77547A",
"j  c #6F7B6B",
"k  c #767B63",
"l  c #7D7C63",
"z  c #767C6C",
"x  c #7D7D6B",
"c  c #6F7A77",
"v  c #7A7E73",
"b  c #737D79",
"n  c #797E7A",
"m  c #813F5C",
"M  c #9D485C",
"N  c #807F5E",
"B  c #884A66",
"V  c #AB5367",
"C  c #B85B64",
"Z  c #807F64",
"A  c #807F6A",
"S  c #BF717D",
"D  c #CC6162",
"F  c #C66971",
"G  c #CD747A",
"H  c #7B814D",
"J  c #7D8355",
"K  c #7F855C",
"L  c #74806C",
"P  c #7F8174",
"I  c #80825D",
"U  c #818263",
"Y  c #82826C",
"T  c #828A6B",
"R  c #858471",
"E  c #364E81",
"W  c #394F82",
"Q  c #3A5285",
"!  c #3D558A",
"~  c #3F5891",
"^  c #425284",
"/  c #425A8E",
"(  c #4A5C8B",
")  c #445C92",
"_  c #465F98",
"`  c #4E618C",
"'  c #52658F",
"]  c #476197",
"[  c #47619A",
"{  c #49649D",
"}  c #566A96",
"|  c #5C6D95",
" . c #5F7190",
".. c #777F84",
"X. c #6E7E94",
"o. c #64759A",
"O. c #61749F",
"+. c #4B66A2",
"@. c #4C68A5",
"#. c #4E6CAC",
"$. c #506EAD",
"%. c #506FB3",
"&. c #5472B4",
"*. c #5A76B3",
"=. c #5676BA",
"-. c #5877BB",
";. c #5979BD",
":. c #6A7FA4",
">. c #647BAB",
",. c #6A7EAB",
"<. c #677FB2",
"1. c #617EBE",
"2. c #5B7CC3",
"3. c #846386",
"4. c #83678B",
"5. c #6F808B",
"6. c #798185",
"7. c #79818A",
"8. c #6D819E",
"9. c #73839D",
"0. c #6D83AD",
"q. c #7483A2",
"w. c #7485AA",
"e. c #6B83B3",
"r. c #6783B8",
"t. c #6D85BA",
"y. c #7186B3",
"u. c #758CBE",
"i. c #5E81CD",
"p. c #6785C4",
"a. c #6A86C3",
"s. c #6A87C7",
"d. c #6485CC",
"f. c #6988CB",
"g. c #748FC7",
"h. c #7F98CB",
"j. c #6286D2",
"k. c #6589D5",
"l. c #6A8CD5",
"z. c #648AD9",
"x. c #7E9AD5",
"c. c #7D9BDC",
"v. c #808481",
"b. c #8D9492",
"n. c #909C96",
"m. c #919EA3",
"M. c #8497BC",
"N. c #94A2A8",
"B. c #8B9CC1",
"V. c #859BC9",
"C. c #819DDA",
"Z. c #8CA0C9",
"A. c #95A6C5",
"S. c #95A9CD",
"D. c #8AA4DC",
"F. c #96ABD2",
"G. c #9AAED5",
"H. c #96ADDC",
"J. c #9EB3DB",
"K. c #A5B4CB",
"L. c #A2B5D5",
"P. c #A7B8D0",
"I. c #A3B7DA",
"U. c #A5B9DB",
"Y. c #8EA8E1",
"T. c #A6BBE1",
"R. c #A9BDE2",
"E. c #A4BBEA",
"W. c #AEC1E4",
"Q. c #B2C5E6",
"!. c #B7C8E7",
"~. c #B9C9E9",
"^. c #B5CAF1",
"/. c #BCCEF0",
"(. c #C3D0E8",
"). c #C6D4F1",
/* pixels */
"o o o o o o o o o o o o o o o o o o o o o o o o o o o o o o o o o o o o o O o o o o O $ O o o o o O ",
"o o o o o o o o o o o o o o o o o o o o o o o o o o o o o o o o o o o o o o o o o o O $ o o o o o O ",
"o o o o o o o o o o o o o o o o o o o o o o o o o o o o o o o o o o o o o o o o o o O o o o o o o o ",
"@ o o o o o o o o o o . o o o o o o o o o o o o o o o o o o o o o o o o o o o o o o o o o o o o o o ",
"o o o o o o o o o o o o o o o o o o o o o o o o o o o o o o o o o o o o O O o o o o + + + o o o o o ",
"X o o o o o o o o o o o o o o o o o o o o o o o o o o o o O o o o o o o # # o o o o + + + o o o o o ",
"o o o o o o o o o o o o o o o o o o o o o . o o o o o O = = o o o o o o O O o o o o O O o o o o o o ",
"o o o o o o o o o o o o o o o o o o o o o o o o o o o o $ O o o o o o o o O o o o o o o o o o o o o ",
"o o o o o o o o o o o o o o o o o o o o o o o o o o o o o o o o o o o o o o o o o o o o o o o o o o ",
"X o o o o o o o o o o o o o o o o o o o o o o o o o o o o o o o o o o o o o o o o o o o o o o o o o ",
"o o o o o o o o o o o o o o o o o o o o o o o o o o o o o o o o o o O o o o o o o o o o o o o o o + ",
"X o o o o o o o o o o o o o o o o o o o o o o o o o o o o o o o o o o o o o o o o o o o o o o o o o ",
"X o o o o o o o o o o o o o o o o o o o o o o o o o o O o o o o o o O O o o o o o o o o o o o o o o ",
"O o o o o o o o o o o o o o o o o o o o o o o o o o o o O o o o o O # O o o o o o o O o o o o o o o ",
"o o o o o o o o o o o o o o o o O O o * * * * * * * = = = * $ * * * = O o o o o o o o o o o o o o o ",
"X o o o o o o o o o o o o o o o o : P n.n.n.n.n.n.n.n.n.n.n.n.n.n.n.K O o o o o o o o o o o o o o o ",
"X o o o o o o o o o o o o o @ H K P K.T.T.I.I.I.I.I.U.W.Q.Q.Q.Q.Q.I.m.T U I H O o o o o o o o o o o ",
"  o o o o o o o o o o o o O J N.P.L.Y.c.c.t.e.,.,.,.M.R.~.^.^.^.E.Y.G.P.P.P.N.H o o o o o o o o o o ",
"  o o o o o o o o o o o # K n.G.H.h.p.r.%.+.) / ( O.B.~.).!.S.B.u.t.H.^.^.E.V.9.5.j @ o o o o o O $ ",
"  o o o o o o o o o o @ K m.F.C.r.@.] ~ ) ) / ( O.Z.~.).(.K.| 6 4 ( B.I.J.D.z.k.j.8.- o o o o o O $ ",
"  o o o o o o o o o & J m.F.x.1.@.) ) ) / / W } A.!.).~.A.o.5 > > 4 } >.<.d.j.z.k.0.J @ o o o o O o ",
"% = : : - - - - - ; R N.F.x.;.+.) ) ) ( / W 4 | J./.!.B.| 2 < > > < 4 W ! @.&.-.i.h.N.J o o o o o o ",
"7 p u p l l p u J u b.U.Y.d.+.) ' ..3.3.h f 1 ` M.G.M. .2 2 > < 1 > > 1 1 W ! _ ;.x.S.P o o o o o o ",
"7 Y l p l l l p p p b.I.D.2.{ ( 4.S G F V g > 5 ( ' ( 5 < > < < > > > > > 1 3 E ] r.g.L @ o o o o o ",
"r Y A p p l t l l u v.V.f.$.) ^ h C D C B d < < < < < < < < > < > 3 > > > > > 3 ! &.p.b : & & @ & : ",
"u Y Y N p x p p A l 7.f.*.) Q 4 , m M B a > < > < < > < > < > < > > > > > 2 > > W $.p...u e t t u p ",
"u R R U l x l l Y A 7.t.*.) E 1 > , s a 2 < < < > > < < < > < < > > > > > > > 1 ! %.s...l p p p u p ",
"e U U p p l p p U p l 7.<.&.~ 4 2 > > < < < > < < < < > < < < > > > 3 > > 2 1 E %.2.d...Z p p t 0 p ",
"e l Z p l l l p U I N v e.2.{ Q 5 2 < > < > < < < < < < < < > < > > > > > > 3 ~ 2.z.k...l l p t e u ",
"u A l N A x p Z R U l 7.t.2.#.) ^ 2 2 < < > < > < < < < > < > < > > > 3 3 3 E _ 2.2.k.q.v i t q 0 N ",
"e p u 0 p l t N x x 6.t.f.j.2.@.) Q 4 < < 1 < < < < < < 1 < 2 < 3 > > 4 Q / / ) +.-.d.p.X.i & @ = e ",
"e l t 8 t p u z 9.w.t.j.2.=.&.{ ) / ! W W W Q W W Q W W W W Q 6 W W Q Q / / ) ) ) +.&.*.>.X.y o o O ",
"t A l u l l l ..a.k.k.2.%._ _ _ [ +._ / / / ~ / / / ~ / { @.@.[ ) ) ) ) +.[ ~ ] { #.#.$.i.r.L o o o ",
"t Z p p x v z X.f.k.2.&.+._ [ ( @.2.#.[ [ [ [ [ [ [ [ { &.i.2.&.[ [ [ %.;.#.[ @.;.i.i.i.i.r.j @ o o ",
"e l p p P q.w.t.l.k.j.2.-.-.*.o.:.d.2.;.;.;.;.;.;.;.;.;.d.k.k.2.;.;.;.2.d.i.;.2.j.k.k.z.z.r.j X o o ",
"t x l Z v.w.t.e.y.t.<.t.r.0.:.c b y.t.t.t.t.e.0.e.e.e.t.t.e.r.e.e.e.e.e.t.t.e.0.e.e.e.e.e.0.i o o o ",
"9 p p p A R x k z z v v z i w - e v n x v v k t y y i v z i y y y y y i z z k i i J y y y w @ X O o ",
"e t t e u l e 0 u u u p e @ o o : p p t p t 8 @ o o o o @ o o o o o o X @ # @ 0 y * o o o o o o @ e ",
"Z l t t l x Z p U l l P t @ o o : u p p l l q o o o o o o o o o o o o o o o @ u z u # o o o o o ; l ",
"l p p t p x p l l p p p ; @ o o - t u t p l 0 o o o o o o o o o o o o o o o @ u J ; o o o o o o = u ",
"p p N t t l u N l p p p ; O o o - t u q u l ; o o o o o o & : : ; & : # o o o & & X o o o o o o o & ",
"Z l Z u p l Z Z Y A l A p & o o - l l p Z A N O o o o o O 0 u N N N u : o o o o o o o o o o o o o o ",
"A x p ; ; t N N I 0 e p t @ o o - u t u A A N o o o o o o ; N N N I I = o o o o o o o o o o o o o o ",
"Z p e o O @ & & = # @ 9 8 @ o o @ & - e Z Z ; o o o # & & 8 u p u l A 0 @ & @ o o o o o o o o o o o ",
"A Z 0 + o o o o o o & q 9 @ o o o o o & e N q o o o - t i p l p p A A e e p 9 O o o o o o o o o o o ",
"Z e @ o o o o o o o @ t t @ o o o o o @ ; t 9 @ o o t x p t p p u p Z p p x e o o o o o o o o o o o ",
"; @ o o o o o X o o @ - - @ o o o o o o o @ @ o o o - q 8 8 t q - - 9 8 w w & o o o o o o o o o o o ",
"o o o o o o o o o o o o o o o o o o o o o o o o o o o o o o o o o o o o o o o o o o o o o o o o o o ",
"o o o o o o o o o o X o o o o o o o o o o o o o o o o o o o o o o o o o o o o o O o o o o o o o o o ",
"o o o o o o o o o o o o o o o o o o o o o o o o o o o o o o o o o o o o o o o o O + o o o o o o o o "
};
