/* XPM */
static char *result[] = {
/* columns rows colors chars-per-pixel */
"50 50 212 2 ",
"   c #090605",
".  c #0A0B05",
"X  c #120B06",
"o  c #0A1308",
"O  c #17160B",
"+  c #1E1C14",
"@  c #1E1F18",
"#  c #251309",
"$  c #23130C",
"%  c #2D1A0D",
"&  c #221D15",
"*  c #221E19",
"=  c #341D15",
"-  c #13220E",
";  c #1C250C",
":  c #1C2E11",
">  c #1C3213",
",  c #1B3916",
"<  c #242608",
"1  c #3C3D0F",
"2  c #232314",
"3  c #292A19",
"4  c #382A18",
"5  c #27381A",
"6  c #363418",
"7  c #2C2B29",
"8  c #293722",
"9  c #3A3024",
"0  c #34322A",
"q  c #3D3D31",
"w  c #492C1B",
"e  c #47351D",
"r  c #55341D",
"t  c #473727",
"y  c #533621",
"u  c #553925",
"i  c #5A3E23",
"p  c #29461E",
"a  c #244B1E",
"s  c #2C4A20",
"d  c #364625",
"f  c #2A5522",
"g  c #2E5D26",
"h  c #2E5E28",
"j  c #375625",
"k  c #374634",
"l  c #2F6028",
"z  c #336327",
"x  c #336328",
"c  c #366A2B",
"v  c #396E2D",
"b  c #3E732D",
"n  c #3A6A32",
"m  c #494619",
"M  c #575919",
"N  c #58591E",
"B  c #65681E",
"V  c #6E711F",
"C  c #454623",
"Z  c #4C4927",
"A  c #584527",
"S  c #415425",
"D  c #555424",
"F  c #575A26",
"G  c #53552C",
"H  c #555A2B",
"J  c #4A4733",
"K  c #4D4B3B",
"L  c #544A36",
"P  c #535432",
"I  c #575738",
"U  c #634D25",
"Y  c #694F27",
"T  c #695727",
"R  c #6A512B",
"E  c #644C36",
"W  c #6A5436",
"Q  c #745C37",
"!  c #566427",
"~  c #53652D",
"^  c #42742D",
"/  c #4B742D",
"(  c #467C2E",
")  c #477F31",
"_  c #4C7E31",
"`  c #527E31",
"'  c #6C6E23",
"]  c #676628",
"[  c #6F7124",
"{  c #6E7129",
"}  c #727522",
"|  c #797723",
" . c #767825",
".. c #7B7924",
"X. c #73752C",
"o. c #76782A",
"O. c #797A2B",
"+. c #676634",
"@. c #6D6E34",
"#. c #6B6C3E",
"$. c #796232",
"%. c #766739",
"&. c #677137",
"*. c #747533",
"=. c #777835",
"-. c #787837",
";. c #75753B",
":. c #7C7538",
">. c #76783B",
",. c #3C3D47",
"<. c #433C42",
"1. c #3C4845",
"2. c #36426A",
"3. c #494D44",
"4. c #505041",
"5. c #5D5342",
"6. c #5B5B4A",
"7. c #5E5E56",
"8. c #686749",
"9. c #706E46",
"0. c #786448",
"q. c #7B654D",
"w. c #706E4C",
"e. c #747344",
"r. c #767943",
"t. c #797944",
"y. c #74734C",
"u. c #78774D",
"i. c #7A7A4C",
"p. c #6B6955",
"a. c #736B56",
"s. c #7E6B53",
"d. c #6E7150",
"f. c #737454",
"g. c #7B7B54",
"h. c #75735A",
"j. c #78765B",
"k. c #7C7C5C",
"l. c #5E5F69",
"z. c #575F7E",
"x. c #61646C",
"c. c #706361",
"v. c #667C60",
"b. c #797465",
"n. c #7D7C63",
"m. c #7E7C6A",
"M. c #6F6F7B",
"N. c #7F7D71",
"B. c #797A76",
"V. c #836B37",
"C. c #856B3C",
"Z. c #897437",
"A. c #8B733B",
"S. c #937B3F",
"D. c #8C7345",
"F. c #977944",
"G. c #8C7351",
"H. c #8A7459",
"J. c #807F63",
"K. c #8A7A62",
"L. c #807F6C",
"P. c #807F73",
"I. c #4B8333",
"U. c #4F8934",
"Y. c #568332",
"T. c #758249",
"R. c #988F2E",
"E. c #888934",
"W. c #948338",
"Q. c #9D8E3B",
"!. c #8D9634",
"~. c #9A9F36",
"^. c #9E943A",
"/. c #A18F3C",
"(. c #A29837",
"). c #A4993A",
"_. c #AA9D3D",
"`. c #9CA638",
"'. c #ACA23C",
"]. c #AEAC3A",
"[. c #B2AA3C",
"{. c #ABB23B",
"}. c #B8B63C",
"|. c #C5C13F",
" X c #9D8147",
".X c #80805F",
"XX c #A58E44",
"oX c #AB9744",
"OX c #B9AE42",
"+X c #818063",
"@X c #82826C",
"#X c #89876B",
"$X c #98866A",
"%X c #828174",
"&X c #8C8379",
"*X c #9C8C73",
"=X c #9C9177",
"-X c #A59378",
";X c #A5957A",
":X c #AB997D",
">X c #636D87",
",X c #51829E",
"<X c #888B8F",
"1X c #989796",
"2X c #A89A81",
"3X c #ADA289",
"4X c #B3A68A",
"5X c #B7AA8E",
"6X c #B1A791",
"7X c #BAAD93",
"8X c #B2AA9A",
"9X c #B3B1AC",
/* pixels */
" .} } } } } o.} } } } } }  .} } }  .}  .} } } } } Y.Z.| | } } | | V E.Y.Z.Z.Y.Z.Z.Z.Z.V | V | Y.Z.Z.",
"} } } } } } } } } } } } } } } } } } } } } } } } | Z.E.Y.| V } } | Z.V | V V V | Z.Y.Z.Y.| Z.V V V V ",
"o.} } } } } } } } } } } } } } } } } } } } } } } | | Y.Z.| } } } V Y.| Z.V | V V Y.V V | V Y.Z.Z.V Z.",
"} } } } } } } [ } } } } } } } } } } } } } } V } V V Z.V } } V } | V V Y.Y.Z.| V Z.| V V V V V Y.Y.Z.",
"} } } } } } } } } } } } } } V } [ V } } } } } } } } } V } } V } V | V V } } } } | | | V | V V V Z.Y.",
"} } } V } } [ } } } } V } } } } } } } } } } } } } } } } } } } } Z.Y.| V } } } } V V V V V | V V V V ",
"} } } } } } } } } } } } } } } } } } } } V } } } } } } } } } } } } } } } } } } } | Y.Z.| Y.| V E.| V ",
"} } } } } } } } } } } V } } } } } } } V } } } } } } | } } } } } } } } } V } } } | V | V Z.V | V | | ",
"} } } } } } } } } } } } } } V } } } } } { &.>.r.T.T.T.y.*.[ }  .| } } } | V } |  .} } } } } } } V | ",
" .} } } } } } } } } } } } [ } } } } } X.H p n n v b c > G ' }  .T...} } } } } } } } } } } } } } V | ",
"} } } } } } } } } } } } } } } } } } { H j c ) I.I.I.( g 5 I [ }  .} } } } } V } } } } } } } } } V | ",
"} } } } } } V } } V } } } } } } } { H d f c b b b b b z a k H } | } } } } } | } } } V } } } } } Y.V ",
"o.[ } } } } } } } } } } } } } } { H 5 c v c c c c c c c b f 8 +.| |  . .} } } } } } } } } } } } Z.V ",
"} } } } } [ } } } } } } } } }  .D 5 x / Y.Y.Y._ _ Y.Y.` _ ^ g 3 F } .... .}  . .} } } } } }  .O.| | ",
" .} } } } } } } } } } } | } } } C : / @.^.}.].:.%.E.].:.%.&.b O G } | ..}  ... .} } } } }  .o.O.| Y.",
" .[ } } } } } } } } } } } } V H k j @.Q _.}.Q.).A.S.|.'.Z.@.&.s d F V } } } } } } } } } } }  .} V V ",
"-.=.*.*.X.=.=.-.*.*.=.} X.;.H.9 5 H V.Z._.'.S.'././.OX[.).A.Q S 3 J *.] ' } } } } } } } } } } } [ o.",
"g.g.g.k.g.i.g.g.g.k.g.*.0.s.*XE r Y XX[._.oX[.V._.[. XC.).).$.r u 0.$X%.' } } } } } } } } } } } } } ",
"T.m.n.b.n.k.k.k.k.n.k.;.+.0.6X2XG.Z.].Z.(._.V.Q (.'.V.K.D.W.'.$.$X4X2XR ' } } } } } } } } } } } } o.",
"%Xm.k.n.n.k.n.g.g.b.g.=.[ %.H.1X0.Y S.D._.}.(.S.V.V.H.:XH.A.oX%.$X*Xw.+.{ *.*.o.o.*.o.X.X.o.o.=.=.{ ",
"@X+XH.T.n.k.n.k.g.%X+X-.} [ I T.f.T R F.oX'.(.A.W q.2X7X$XD.V.A.<Xm.5.b.i.g.k.i.i.g.g.i.i.i.g.g.g.;.",
"%X+X@XB.n.n.L.@XT.&X+X-.} } r.,XT.R.A C.F.A.W i H.-X4X2X*X0.U '.T.,Xn.T..Xn.+Xk.H.T.k.k.k.g.k.+Xk.>.",
"&XT.k.m.k.k.+Xm.H.@X.X-.} } ;.1.T.(.T 4 E R i H.-X2X$XE 9 t $.].+.3.H.J.k.k.k.i.T.m.n.k.k.u.i.k.k.>.",
"m.k.k.n.n.k.+X+XT.T.k.>.} [ >.Z +.W.E b.l.<.u *X4X*XE ,.x.q.U /.A 3.T.@XT.k.k.i.n.m.n.k.h.g.i.n.T.t.",
"m.k.T.P.m.n.#X@X.XH.T.r.} } -.8.W u t 8X>X2.b.3X7X2Xc.2.<X&X4 E L 8.m.&X@Xm.m.k.k.J.n.j.g.i.g.T.%Xi.",
"k.g.k.b.n.g.+X+Xk.n.n.>.} } *.g.6.+ @ =XM.>X9X7X7X8X1X>X<Xb.  & G %.k.T.g.g.g.t.;.i.u.r.*.*.i.i.t.;.",
"g.t.i.n.g.g.n.k.i.g.i.*.} } >.j.p.3.* Q *X5X7X7X7X5X7X3XK.A @ G N } X.*.o.X.o.}  .X.X.}  .} o.X.X.o.",
"+Xg.k.n.k.k.@Xk.i.k.k.-.} } >.n.7.q p i W H.:X:X:X:X-XG.E e p d ! V } } } } } } } } } } } } } } } } ",
"n.k.k.m.k.k.n.k.i.n.k.=.} } ;.p.,.k v.q 1 P h.f.f.f.d.C 6 L h.5 C ] { } } } } } } } } } [ } } } } [ ",
"n.g.k.J.k.g.k.i.t.f.f.*.} } 8.7 7 z.1Xd p g h h l h l l p 7.1Xt % J #.t.=.} } } } } } } } } } } } o.",
"n.n.+X%X+Xi.g.k.u.n.k.=.} ] 3 y u e * e j x x z c x l l C e * u y e K n.t. .} } } } } } } } } } } o.",
"@Xk.+X@X.Xt.i.g.g.n.g.=.[ ' 4 H.;XL.> ~ F e D ~.{.E.r C ! j 8 =XK.L q j.t. .} } } } V } } } } } [ o.",
"g.i.g.k.g.t.i.T.k.n.u.*.} [ P a.K.p.: v ~ G D !.`.E.Z F / g 3 a.5.J P ;.*.>.>.=. .} } } } } *.>.;.=.",
"k.f.k.L.J.g.J.H.k.n.k.-.} [ @.K 0 3 o a b I.v v v v v I.c , . ; O 6 B } =.k.n.i. .} } } } } i.n.n.t.",
"k.g.k.n.+Xn.m.n.k.n.i.X.} } @.w.a.6.O X a b U.U.U.U.I.v > . + 6 < 1 B ' *.k.n.r.} } } } } } t.n.n.y.",
"k.g.g.n.k.g.n.k.k.k.t. .} [ *.y.6.9 w = ; - > > > > ; - O % % X O m B } X.>.;.o.} } } } } } *.r.r.*.",
"m.k.k.n.n.+X@X+Xk.m.k.-.} } >.f.3.O r w %   . 2 2 O     $ % #   2 N } } } } } } } } } } } } } } } X.",
"n.i.t.g.k.+X@Xg.g.n.k.>.} } *.f.K 4 = = $ X O < < ; X   # % % & J X. .} } } } } [ } } } } } } } } X.",
"k.-.o.*.-.t.t.=.=.r.i.X.} } X.r.e.8.K 4.Z m M M M N Z 6 + + 0 7.h.t.X.X.} } } } V } } } } } } } } X.",
"g.X.} }  .} o. .X.r.t.*.} } } } o.;.g.T.i.o. .} *.u.u.f.a.f.f.n.T.g.t.i.>. .} } } } } } } } } } } } ",
"t.} } | } } } } X.i.g.;.} } } }  .X.t.g.i. .} X.y.n.k.k.k.g.k.n.J.g.n.J.t. .} } } } } } } } } } } X.",
"o.[ } [ } [ } [ X.r.u.*.X.X.X.X.X.X.*.t.r.*. .X.u.n.f.k.n.k.i.g.k.j.n.k.r.X.X.X.X.X.o.X.o.X.o.}  .X.",
"X.X.X.X.X.X.X.X.X.X.;.t.n.m.L.n.m.m.m.m.L.n.g.t.n.m.m.m.%X%Xm.%XL.m.n.i.g.n.b.m.n.b.n.g.k.n.f.r.t.*.",
"*.X.X.X.X.X.X.X.X.X.*.i.@X%X%X%XP.P.P.P.%X@Xg.t.T.%X%X%X@X@X%XB.P.P.n.t.k.L.N.N.m.m.m.b.h.a.w.9.t.;.",
"X.X.X.X.@.*.X.X.X.X.*.u.m.%X%X%XP.P.P.P.%Xm.i.e.P.P.P.P.L.P.&XN.P.N.n.r.g.m.P.P.J.g.j.w.;.@.@.:.e.;.",
"*.X.X.X.X.X.X.X.*.X.X.;.j.m.m.N.m.m.m.N.m.b.e.*.j.n.m.P.m.m.m.m.m.n.w.;.9.j.b.m.k.i.y.;.X.*.X.*.*.*.",
"*.X.*.X.X.X.X.X.X.X.X.*.#.y.w.y.9.e.e.9.e.9.*.*.%.9.w.w.w.9.9.w.w.9.*.*.*.9.w.d.w.;.-.X.*.X.X.X.X.X.",
"*.X.X.X.X.X.X.X.X.X.X.X.X.{ X.@.X.@.*.@.X.X.X.X.*.X.X.@.@.@.X.X.X.X.X.X.X.@.X.@.:.*.*.X.X.*.X.X.X.X.",
"X.X.X.*.X.X.X.X.X.X.X.X.X.X.o.X.X.X.o.X.X.X.X.*.o.X.X.X.X.X.X.X.X.X.X.X.X.X.X.X.X.X.X.X.X.X.X.X.X.X.",
":.:.*.:.-.-.;.:.-.-.;.-.*.:.>.:.:.*.-.>.*.-.:.*.-.>.;.-.*.:.-.>.:.:.;.*.*.-.>.:.-.-.;.-.-.-.>.-.;.*."
};
