/* XPM */
static char *result[] = {
/* columns rows colors chars-per-pixel */
"50 50 75 1 ",
"  c #2D1613",
". c #2E1814",
"X c #342016",
"o c #3E261D",
"O c #41291F",
"+ c #42321A",
"@ c #473B1D",
"# c #483B1D",
"$ c #503D24",
"% c #4E421F",
"& c #514720",
"* c #564D22",
"= c #584A26",
"- c #5C5624",
"; c #605B26",
": c #63552E",
"> c #614F33",
", c #635236",
"< c #665438",
"1 c #69573B",
"2 c #6A583C",
"3 c #666428",
"4 c #6C6E2A",
"5 c #706E2C",
"6 c #6F712B",
"7 c #73742D",
"8 c #76782F",
"9 c #6D6531",
"0 c #706A33",
"q c #777930",
"w c #797B31",
"e c #6D5D42",
"r c #716045",
"t c #736840",
"y c #796754",
"u c #7A6956",
"i c #7D6D5B",
"p c #7F715C",
"a c #676F72",
"s c #6B7173",
"d c #767673",
"f c #7C7974",
"g c #816F5E",
"h c #82715F",
"j c #837464",
"k c #877967",
"l c #877769",
"z c #87786A",
"x c #897B6B",
"c c #877E74",
"v c #8D7E71",
"b c #8C816E",
"n c #8E8372",
"m c #918676",
"M c #928877",
"N c #938678",
"B c #948B7A",
"V c #988F7F",
"C c #6A8DA3",
"Z c #8E8E85",
"A c #978E80",
"S c #998E81",
"D c #9B9283",
"F c #9D9688",
"G c #A09689",
"H c #A39A8D",
"J c #A59D91",
"K c #A7A194",
"L c #A9A295",
"P c #A2A39E",
"I c #ABA599",
"U c #ADA89C",
"Y c #879DA7",
"T c #90A1A6",
"R c #9CA1A0",
/* pixels */
"77777777777777777777777777777777787777777777777777",
"77777777777777777777777777777778777777777777777777",
"77777777777777777777777777777777777777777777777777",
"77777777777777777777777777777777777777777777777777",
"77777777777777777777777777777777777777777777777777",
"77777777777777777777777777787777777777777777777777",
"77777777777777777877777777787777777777777777777777",
"77777777777777777999990999990995777777777777777777",
"7777777777777775tkkkkxkxkkkxkxkg077777777777777777",
"777777777777775tBLLLLLLLLLLLLLLHj97777777777777777",
"777777777777775rJLLLKKLLKKKLKLKIv97777777777777777",
"w77777777777777rJILLLLLLLLLLLLLIv98777777777777777",
"w77777777777777rHIIIILILLILIILIIv97777777777777777",
"777777777777775rJIILIIIIIIIIIIIUv97777777777777777",
"777777777777777rJIIIIIIIIIIIIIIUv97q77777777777777",
"777777777777777rJIIHKIIIIIIIHLIUv97777777777777777",
"777777777777777rJUGNNHIIIIIVNNJUv97777777777777777",
"77777wq77777775rJFxDSxJIIUVvDNvUv97777777777777777",
"7777qw777777777rJNxNNzSIUJvvvNxJn97777777777777777",
"7777w7677777775eNjSNmSgGJmzVNNvlx37777777777777777",
"7777678877777752SNDDDDmSDNNFGGVNj$#@#@*67777777777",
"777767q777777771SSDSDDDSDDDDDGDHko    .*8777777777",
"7777774777777771SAvvvbmSSBnvvmNFkO     %7777777777",
"7777777777777751ANvfacxBVmvdsnxFjo . . %7777777777",
"7777777777777751BVJTCRGBBBJYCPDDjO. .  %7777777777",
"7777777777777751BVVDZDBBBBVAZDVDjO ..  %7777777777",
"7777777777777771MVBBBBBMmBBBBBBDho     %7777777777",
"7777777777777771MBBBBBBxyMBBBBBDhO     %7777777777",
"777777777777776<MBBBBBbihhMMMBBVho     %7777777777",
"777777777777776<mMBMMmixmhkMBMBVgO     %7777777777",
"777777777777777<mBMBMMmMMmMBMMMVgO     $7777777777",
"777777777777776<nMMMMMMMMMMMMMMBgO . . &8777777777",
"777777777777775<nMMmmMMMMMMMMMMBpo..  .&8677777777",
"777777777777775<nMmmMmnMMnMnMMnBpo    o68877777777",
"777777777777777,nmnmnmMMMMMnMMMBpo   X-66687777777",
"777777777777785,bmnnnnbMbnMnbMbMpo   o678668777777",
"777777777777775,bnbnbmnnbMMbnnbMuo  X;687777777777",
"777777777777775,bbbbbbbbbbbbnbbMpo .o6867777777777",
"787878777777777>bbbbbbbbbbbbbbbMuo X48687777777777",
"qw7qqq877777775>bbbbbbbbbbbbbbbnuo %66867777777777",
"877wwq777777774,xbbbbbbbbbbbbbbmrOX387777777777777",
"668887777777775:ipiiiiipiiipupupe+-777777777777777",
"77q7788777787775::::-,::::::::::=;7777777777777777",
"77668677777777777777778677777777777777777777777777",
"77777777777787777777777777777777777777777777777777",
"77777777777777777777777777777777777787777777777777",
"7777777777777777q87788777777777777777777777777777w",
"777777777777778qwqqqqq7777777777777777777777777778",
"77777777777778ww887q877777786877777777777777777777",
"777777777777778w8678667777777677777777777777777777"
};
