/* XPM */
static char *result[] = {
/* columns rows colors chars-per-pixel */
"50 50 64 1 ",
"  c #2D1713",
". c #2D1913",
"X c #311D15",
"o c #3B2A19",
"O c #3F301A",
"+ c #463A1D",
"@ c #493C1D",
"# c #473024",
"$ c #4C3529",
"% c #504720",
"& c #524921",
"* c #57452D",
"= c #5A5424",
"- c #5F5926",
"; c #5E512E",
": c #615E26",
"> c #655734",
", c #655933",
"< c #65553A",
"1 c #6A5A3E",
"2 c #6E6E2C",
"3 c #706F2C",
"4 c #6E722B",
"5 c #72752D",
"6 c #75782F",
"7 c #6C6631",
"8 c #6F6933",
"9 c #6C6139",
"0 c #71693B",
"q c #777930",
"w c #797C31",
"e c #6C5C42",
"r c #706147",
"t c #74644B",
"y c #776A4B",
"u c #736151",
"i c #7A6B56",
"p c #7D6E5E",
"a c #7E6E60",
"s c #7F7260",
"d c #80715F",
"f c #817362",
"g c #867A6A",
"h c #897D6E",
"j c #8A7F71",
"k c #8C816E",
"l c #8E8472",
"z c #908776",
"x c #918877",
"c c #92867A",
"v c #948B7B",
"b c #988F7F",
"n c #978D81",
"m c #988F81",
"M c #9B9284",
"N c #9E9689",
"B c #9E988A",
"V c #A0978A",
"C c #A29B8C",
"Z c #A59E91",
"A c #A7A094",
"S c #A9A296",
"D c #ABA599",
"F c #AFA99D",
/* pixels */
"55555555555555555555555555555555555555555555555555",
"55555555555555555555555555555555555555555555555555",
"55555555555555555555555555555555555555555555555555",
"55555555555555555555555555555555555556555555555555",
"55555555555555555555555555555555555555555555555555",
"55555555555555555555555555555555555555555555555555",
"55555555555555555555555555555555555555555555655555",
"555555555555556ry027777772777772555555555555555555",
"555555555555553ycdupapspaapppaai855555555655555555",
"555555555555555yNmhZAAAAAAAAAAABf85555555555555556",
"555555555555558tNVcmAASAAAASSAASx95555555555555555",
"q65555555555554tnVBCDASSAASSSSADx15555555555555555",
"w55555555555553rmZDDSSSSSSSSSSSDc95555555555555555",
"555555555555553ejZDDDDDDDDDSSDDDc95555555555555555",
"555555555555555tjcZDDDDDDDDDDDDDc95555555555555555",
"555555555555555yVncZSDDDDDDDDDDDc95555555555555555",
"555555555555553tNVjCDDDDDDDFDDDFc96555555555555555",
"55555qq55555563rnCmVDDDDSDDDDDDFc95555555555555555",
"5555qw555555553rnZDFDDDDDDFDFFFFx95555555555555555",
"5556w5455555553eNDZZSSDSDSSDDZDDz15555555555555555",
"555544q55555552enVMMNMMNNMNNNVBVl*++@+%45555555555",
"555545qq5555552enmmmmMMmMbMMmMNNj$    .@5555555555",
"555554455555552enmmmmmmmmmMbmMMBj$     +5555555555",
"555555555555552ecmmmbbbbbbbbbmmMj$     +5556555555",
"5555555555555521xbvbvvbvbbbbbbbMh$     +5555555555",
"5555555555655521xbbvbbvvvvvvvvvMg$ . . +5555555555",
"555555555555553ezvvvvvvvvvvvvvvMg$ . . +5555555555",
"5555555555555531zvvvvvvvvxxvvvvmg$     +5555555555",
"5555555555555531zvvvvxvvxvxxvvvbg$     +5555555555",
"555555555555553<lvvxvxvxxxvvxvvvg$     +5555555555",
"5555555555555531lvxxvxxxvxvxxxxvf$.    +5565555555",
"555555555555553<hvxxxxxxxxxxxvxvf$     +5555555555",
"555555555555555<kvxxzzzzzzzzxxxvf$..   @5555555555",
"555555555555554<kxlxzzzzzzzzlxxvf$..  o25555555555",
"555555555555552<kllxlzlzzzzzxxxxs$.  X%55555555555",
"555555555555555<kxlllzlzlzlzlllxd$   o455555555555",
"555555555555552<hlkllllllllllllzd$  X=455555555555",
"555555555555552<hlkkkklkklkllkkzs$ .O2555555555555",
"565555555555552<gkkkkkkkklkkkkkls$ X:5555555555555",
"qw56ww555555542<gkkkkkkkkkkkkkkli# @25555555555555",
"645qw6555555552<gkhkkkkkkkkkkkklp#o:55555555555555",
"456q65655555552;pfddfdfspfsfsssfu+&555555555555555",
"55q55q6555555552>>>>,,,>,,>>,,,,;-5555555555555555",
"55446455555555555535454555544554455555555555555555",
"55555555555555555555555555555555555555555555555555",
"55555555555555555555555555555555555555555555555555",
"5555555555555556q655665555555555555555555555555556",
"555555555555555qwq6qq65555555555555555555555555556",
"55555555555556ww555q555555555555555555555555555555",
"55555555555555ww6456545555555555555555555555555555"
};
