/* XPM */
static char *result[] = {
/* columns rows colors chars-per-pixel */
"50 50 64 1 ",
"  c #2C1613",
". c #2F1914",
"X c #311B15",
"o c #3A2918",
"O c #463A1D",
"+ c #4A3525",
"@ c #4F392C",
"# c #513C2F",
"$ c #4B411E",
"% c #574727",
"& c #534B21",
"* c #5F4E2C",
"= c #595224",
"- c #5F5B26",
"; c #564234",
": c #61532B",
"> c #614F31",
", c #604F38",
"< c #635134",
"1 c #665538",
"2 c #6A5A3D",
"3 c #676629",
"4 c #6C6C2B",
"5 c #6E722B",
"6 c #72752D",
"7 c #76782F",
"8 c #6D6634",
"9 c #716F30",
"0 c #71673F",
"q c #717130",
"w c #777930",
"e c #797C31",
"r c #6F6341",
"t c #726543",
"y c #756A45",
"u c #746453",
"i c #7C6F56",
"p c #796759",
"a c #7C6D5C",
"s c #7F705F",
"d c #827464",
"f c #847867",
"g c #837668",
"h c #867A6B",
"j c #897E6D",
"k c #8B7E70",
"l c #8B816E",
"z c #8E8472",
"x c #908775",
"c c #928877",
"v c #92877B",
"b c #948B7B",
"n c #988F7F",
"m c #98907F",
"M c #978D80",
"N c #988F80",
"B c #9A9283",
"V c #9E9689",
"C c #A19A8C",
"Z c #A59E92",
"A c #A7A194",
"S c #A9A396",
"D c #ABA599",
"F c #AEA89D",
/* pixels */
"66666666666666666666666666666666666666666666666666",
"66666666666666666666666666666666666666666666666666",
"66666666666666666666666666666666666666666666666666",
"66666666666666666666666666666666666666666666666666",
"66666666666666666666666666666666666666666666666666",
"66666666666666666666666666666666666666666666666666",
"666666666666666666666666666666665q6666666666666666",
"66666666666666666888888888888890iy6666666666666666",
"66666666666666660dkkkkkkjkjkkjpkMyqq66666666666666",
"6666666666666662hZSSSSSDSSSSSCkCVy5666666666666666",
"6666666666666662vSSZZSZSSSSASNvCMr6666666666666666",
"w766666666666652vDSSSSSZSSASSZCCbrq666666666666666",
"e666666666666662vDDSDZDDDSDSDDSZMr5666666676676666",
"6666666666666662vDDDSDDDDDDDDSSChrq566666666666666",
"6666666666666662bDDSDDDDDDDDDDVvvt6666666666666666",
"6666666666666662vDDDDDDDDSDDDSkBVy5666666666666666",
"6666666666666692vFFDDDFDDDDDSBvCBt5666666666666666",
"6666677666666662vFFDDDDDDDDDDZVCvr6666666666666666",
"6666we6666666662vFFFFFFFDFDDDFDZMr6566666666666666",
"6667e66666666661vSZZZZZAZZZZZZZZBr5566666666666666",
"666646766666666>kCVVBBBBBBBBBBBVb,$$$$=66666666666",
"666666776666669:hVBBBBNNBBBNNNBBb;    X&6666666666",
"666666466666666<hVNBBNNNNNNNnNNBc;     o6666666666",
"666666666666669<hVNNnnnnNNbNbnnBx;X    +6666666666",
"666666666666666>hBnnnnnbbbbnbbnNz;.    O6666666666",
"6666666666666691hBbnbbbbbnnbbnbNz;.    O6666667666",
"666666666666666>gBbbbbbbbbbbbbbnz;.    O6666666666",
"666666666666666>gncbbccbbcbbcbbnz;. .  O6666666666",
"666666666666666>gmbbbxbbcbbbbbbbl;     O6666666666",
"666666666666665>gbccxbccbccccbcbl@.    O6666666666",
"666666666666666*dbbcbcbbccbccbbbl;.    O6666666666",
"666666666666666<dbcccczzbzczcccch;.    $6666666666",
"666666666666666<dccxxxxxcxxcccccl#.    $5666666666",
"666666666666666:dccxxxxxxxxxczzcl%. . o36666666666",
"666666666666665>sxxxxxzxzxzzzclch;.  .$56666666666",
"666666666666666>dczzzzzzzzzzzzzch#.  o566666666666",
"666666666666664>sxlxzzzlzzzzzllcf;. .=666666666666",
"666666666666666>sxlllzlllzllzllzf@. o4666666666666",
"676666666666664*azllllllllllllllf; .-6666666666666",
"7e677e666666669*azllllllllllllllf@.O46666666666666",
"766wee666666666*azjjjllllllllllzf@o-76656666666666",
"55www6666666664*tuuuuuuuuuuuuuuut+$556676666666666",
"66w66w7666666664:**:********=***%=5676666666666666",
"6655w566666666666666666565666665566666666666666666",
"66566666666666666666666666666666666666666666666666",
"66666666666666666666666666666666666666666666666666",
"666666666666666w766667666666666666666666666666666w",
"666666666666666we777e7666666666666666666666667666w",
"66666666666667ee776w756666666666666666666666666666",
"66666666666666ee655w656666667666q66666666666666666"
};
