/* XPM */
static char *result[] = {
/* columns rows colors chars-per-pixel */
"50 50 71 1 ",
"  c #2C1613",
". c #2F1914",
"X c #311C15",
"o c #3A2918",
"O c #43351B",
"+ c #473B1D",
"@ c #483C1D",
"# c #4B3626",
"$ c #4E392B",
"% c #523D2F",
"& c #543E31",
"* c #4D431F",
"= c #4E4420",
"- c #514720",
"; c #554E22",
": c #57452A",
"> c #5D4B2E",
", c #595124",
"< c #5E5A25",
"1 c #554032",
"2 c #5F4E31",
"3 c #604F2E",
"4 c #605C26",
"5 c #614E35",
"6 c #625036",
"7 c #65533A",
"8 c #6A583F",
"9 c #656328",
"0 c #6E6E2C",
"q c #716F2E",
"w c #6E722B",
"e c #72752D",
"r c #75782F",
"t c #6F623F",
"y c #716C35",
"u c #726B3A",
"i c #727035",
"p c #777930",
"a c #797C32",
"s c #6E5D45",
"d c #706541",
"f c #756C43",
"g c #7A6F4D",
"h c #767141",
"j c #756654",
"k c #776857",
"l c #7C6E5C",
"z c #7D7156",
"x c #837665",
"c c #857965",
"v c #877B69",
"b c #897D6C",
"n c #8C816E",
"m c #8E8472",
"M c #908776",
"N c #918877",
"B c #908679",
"V c #948B7B",
"C c #988F7F",
"Z c #98907F",
"A c #978E82",
"S c #988F80",
"D c #9A9284",
"F c #9D9589",
"G c #9F988B",
"H c #A29A8D",
"J c #A59E92",
"K c #A7A093",
"L c #A9A296",
"P c #ABA599",
"I c #ADA89D",
/* pixels */
"eeeeeeeeeeeeeeeeeeeeeeeeeeeeeeeeeeeeeeeeeeeeeeeeee",
"eeeeeeeeeeeeeeeeeeeeeeeeeeeeeeeeeeeeeeeeeeeeeeeeee",
"eeeeeeeeeeeeeeeeeeeeeeeeeeeeeeeeeeeeeeeeeeeeeereee",
"eeeeeeeeeeeeeeeeeeeeeeeeeeeeeeeeeeeeeeeeeeeeeeeeee",
"eeeeeeeeeeeeeeeeeeeiyeeeeeeeuieeeeeeeeeeeeeeeeeeee",
"eeeeeeeeeeeeeeeeeeycnheeeeehncieeeeeeeeeeeeeeeeeee",
"eeeeeeeeeeeeeeeeeqzGHcyeeeycJHx0eeeeeeeeeeeeeeeeee",
"eeeeeeeeeeeeeeeeefnJKVguuugCLJmueeeeeeeeeeeeeeeeee",
"eeeeeeeeeeeeeeeefmHHHHVMMMCJJJHMfeeeeeeeeeeeeeeeee",
"eeeeeeeeeeeeeeesMHHHHHJKJJJJHHJHBteeeeeeeeeeeeeeee",
"eeeeeeeeeeeeeewsDLLJJJLLJJLJKKJLDdeeeeeeeeeeeeeeee",
"preeeeeeeeeeeeqsDPLLPLKLPLLLLLLPDdweeeeeeeeeeeeeee",
"aeeeeeeeeeeeeeqsDPJPLPPLPPLLPLPPDdeeeeeereeeeeeeee",
"eeeeeeeeeeeeeewsFPPPPPPPPPPLLPPPDdeeeeeeeeeeeeeeee",
"eeeeeeeeeeeeeeesFPPPPPPPPPPPPPPPDdeeeeeeeeeeeeeeee",
"eeeeeeeeeeeeeeesAPPPLPPPPPPPPPPIFdeeeeeeeeeeeeeeee",
"eeeeeeeeeeeeeeqsFIJIPPPPPPPPPPPIDdeeeeeeeeeeeeeeee",
"eeeeeareeeeeee0sFIPPPPPPPPPPIPIIFdweeeeeeeeeeeeeee",
"eeeeraeeeeeeeeqsFIIIIPPIIIIIIIIIFdweeeeeeeeeeeeeee",
"eeeeaeeeeeeeeee8AJJJJJJJJJJJJJJJSsepeeeeeeeeeeeeee",
"eeeeewreeeeeeeq7BFSHCSDDDDSHHHAHB6====,weeeeeeeeee",
"eeeeweaeeeeeee07bFSSSSSSASSSSDSHB1.   X;eeeeeeeeee",
"eeeeewweeeeeeeq7BFAASSSASSSSSSSHB&     +reeeeeeeee",
"eeeeeweeeeeeee07BAACSSCCSSCCSCCSB&X    +eeeeeeeeee",
"eeeeeeeeeeeeee07bSCCVCCCCCCVCCCZB&..   +eeeereeeee",
"eeeeeeeeeeeeeeq7MCVVVVVVVVVVVCVDm&.    @eeeeeeeeee",
"eeeeeeeeeeeeeeq7bSVVVVVVVNVVVVVZm&. .  @eeeeeeeeee",
"eeeeeeeeeeeeeee7bSVVVVVNNVVVNVVCm&.    +eeeeeeeeee",
"eeeeeeeeeeeeeeq6bCNCVVVVNNNNNVVCn%.    @eeeeeeeeee",
"eeeeeeeeeeeeeeq5bANNNVVNVNVVVNVVn%. .  @eeeeeeeeee",
"eeeeeeeeeeeeeeq5bNNNNNNNNNNNNVNVn%.    @eeeeeeeeee",
"eeeeeeeeeeeeeeq6bCNNMNNNNNNNNNNVb%.    *eeeeeeeeee",
"reeeeeeeeeeeeew6vNNNNmMMMMMBNNNVn%     @eeeeeeeeee",
"eeeeeeeeeeeeeew6bNNNmNBNMMMMNNmVv:    o9eeeeeeeeee",
"eeeeeeeeeeeeeee5vNmmmNmNMMMMNmmNv%   .@eeeeeeeeeee",
"eeeeeeeeeeeeee05cNmmmmmmmmmmMmmNv%X  o0eeeeeeeeeee",
"eeeeeeeeeeeeee05cmmmmmnmmmmmmmmMv%  X;eeeeeeeeeeee",
"eeeeeeeeeeeeee05cmmnnnnmnnnmnnmmv%X o0eeeeeeeeeeee",
"ereeeeeeeeeeee02xmnnnmnnnnmnnnnmc% X<eeeeeeeeeeeee",
"raerrrreeeeeee02xnnnbnnnnnnnnnnmx$ O0eeeeeeeeeeeee",
"peepaaeeeeeeee02xmbnnnnnnnnnnnnnc$X4reeeeeeeeeeeee",
"werppeeeeeeeee0>kllllllllllllllzj#-weeeeeeeeeeeeee",
"wepeeaeeeeeeeee93>>33>>>>2>32222:,eeeeeeeeeeeeeeee",
"eeewreeeeeeeeeepweeeeeeeweweweweweeeeeeeeeeeeeeeee",
"eeweeeeeeeeeeeeeeeeeeeeeeeeeeeeeeeeeeeeeeeeeeeeeee",
"eeeeeeeeeeeeeeeeeeeeeeeeeeeeeeeeeeeeeeeeeeeeeeeeee",
"eeeeeeeeeeeeeeepreeerreeeeeeeeeeeeeeeeeeeeeeeeeeee",
"eeeeeeeeeeeeeeeparerareeeeeeeeeeeeeeeeeeeeeeeeeeep",
"eeeeeeeeeeeeeraarreareeeeeeeeeeeeeeeeeeeeeeeeeeeee",
"eeeeeeeeeeeeeraaewwaeweeeeeeeeeeeeeeeeeeeeeeeeeeee"
};
