/* XPM */
static char *result[] = {
/* columns rows colors chars-per-pixel */
"50 50 226 2 ",
"   c #271C15",
".  c #331D16",
"X  c #1F3219",
"o  c #282116",
"O  c #372617",
"+  c #36211B",
"@  c #3A2618",
"#  c #3D2B1B",
"$  c #283818",
"%  c #37372E",
"&  c #43331D",
"*  c #473B1C",
"=  c #4C3827",
"-  c #43332B",
";  c #533F25",
":  c #503F34",
">  c #27471E",
",  c #2E531E",
"<  c #394928",
"1  c #2C5425",
"2  c #3E5629",
"3  c #3E4B39",
"4  c #356C2E",
"5  c #396B2A",
"6  c #3C752F",
"7  c #346A33",
"8  c #3C6C33",
"9  c #474B2B",
"0  c #524422",
"q  c #574928",
"w  c #5A4D29",
"e  c #5B5424",
"r  c #5E5A26",
"t  c #585329",
"y  c #4A4435",
"u  c #534435",
"i  c #594836",
"p  c #5D4E3E",
"a  c #435537",
"s  c #585637",
"d  c #654B2E",
"f  c #64572A",
"g  c #645C2B",
"h  c #725A29",
"j  c #624B36",
"k  c #635439",
"l  c #715538",
"z  c #4D702E",
"x  c #556B3F",
"c  c #4B7A33",
"v  c #656227",
"b  c #66642B",
"n  c #69652A",
"m  c #6D6C2B",
"M  c #6F712B",
"N  c #72752D",
"B  c #76782F",
"V  c #6B6532",
"C  c #6E6B31",
"Z  c #6B643A",
"A  c #766535",
"S  c #6E7033",
"D  c #737632",
"F  c #767932",
"G  c #797A31",
"H  c #777A3C",
"J  c #3A4648",
"K  c #385644",
"L  c #3C5958",
"P  c #3B6449",
"I  c #3F5663",
"U  c #49494A",
"Y  c #5C4E41",
"T  c #5E5244",
"R  c #5E554D",
"E  c #47455C",
"W  c #465B5C",
"Q  c #575856",
"!  c #625343",
"~  c #695744",
"^  c #645845",
"/  c #635548",
"(  c #645A4D",
")  c #6A5B4C",
"_  c #645E54",
"`  c #6A5E51",
"'  c #457848",
"]  c #4C6A50",
"[  c #58615C",
"{  c #487B54",
"}  c #6F6643",
"|  c #73644E",
" . c #786648",
".. c #7B7E41",
"X. c #7C7D48",
"o. c #666057",
"O. c #6C6254",
"+. c #67675D",
"@. c #6C655B",
"#. c #726556",
"$. c #756A54",
"%. c #71675A",
"&. c #736A5D",
"*. c #79715D",
"=. c #455D65",
"-. c #596669",
";. c #496A74",
":. c #546E74",
">. c #4D767B",
",. c #57757B",
"<. c #696B67",
"1. c #746D63",
"2. c #796F63",
"3. c #6B716E",
"4. c #767065",
"5. c #7A7266",
"6. c #74736C",
"7. c #7C766A",
"8. c #7E796D",
"9. c #636F71",
"0. c #6C7574",
"q. c #6A797A",
"w. c #747A75",
"e. c #7E7C72",
"r. c #777B78",
"t. c #737C7A",
"y. c #88762C",
"u. c #856A38",
"i. c #897639",
"p. c #8A7C3A",
"a. c #886D47",
"s. c #8B754F",
"d. c #94794F",
"f. c #836D57",
"g. c #897556",
"h. c #847A6A",
"j. c #937D62",
"k. c #817E73",
"l. c #887E70",
"z. c #4C8534",
"x. c #4D8834",
"c. c #538433",
"v. c #4E8351",
"b. c #568E56",
"n. c #7F8148",
"m. c #74807F",
"M. c #79807E",
"N. c #7B9774",
"B. c #848337",
"V. c #8C833A",
"C. c #97883B",
"Z. c #9A993B",
"A. c #A08C3B",
"S. c #A1943A",
"D. c #A99C3D",
"F. c #AEA23C",
"G. c #B1A63D",
"H. c #B8B93D",
"J. c #828448",
"K. c #9A8642",
"L. c #878759",
"P. c #A68948",
"I. c #A99643",
"U. c #A9AC44",
"Y. c #868A66",
"T. c #8C8B63",
"R. c #9C8567",
"E. c #94926C",
"W. c #838176",
"Q. c #85847B",
"!. c #89867C",
"~. c #87887F",
"^. c #8A897F",
"/. c #9E9577",
"(. c #A49677",
"). c #B29E7E",
"_. c #567886",
"`. c #627B82",
"'. c #6B7E82",
"]. c #737F81",
"[. c #6F7997",
"{. c #6A8489",
"}. c #748384",
"|. c #7A8584",
" X c #7C8886",
".X c #758689",
"XX c #76898B",
"oX c #7B8B8C",
"OX c #658A94",
"+X c #758E93",
"@X c #7A8F91",
"#X c #6E959F",
"$X c #7C9295",
"%X c #7D969A",
"&X c #7F999D",
"*X c #729DA8",
"=X c #75ADBE",
"-X c #7CB9CB",
";X c #848680",
":X c #858A84",
">X c #8B8B82",
",X c #848D8A",
"<X c #898F89",
"1X c #898D8B",
"2X c #8A9086",
"3X c #8A918C",
"4X c #969484",
"5X c #849393",
"6X c #8B9591",
"7X c #869B9C",
"8X c #A49887",
"9X c #B7A587",
"0X c #B9AE92",
"qX c #8C95A6",
"wX c #839EA2",
"eX c #85A1A5",
"rX c #84A5AC",
"tX c #82A9B4",
"yX c #84ABB5",
"uX c #84B1BD",
"iX c #B8B3AC",
"pX c #C7B696",
"aX c #D2BF9D",
"sX c #DACBA9",
"dX c #D4CAB5",
"fX c #E0D3B5",
/* pixels */
"N N N N N N N N N N N N N N N N N N N N N N D N N D M D M N N N N N N N N N N N N N N N N N N N N N ",
"N N N N N N N N N N N N N N N N N N N N M N t 2 c c c 2 b D N N N N N N N N N N N N N N N N N N N N ",
"N N N N N N N N N N N N N N N N N N N N M r 2 4 z.z.x.4 2 m M N N N N N N N N N N N N N N N N N N N ",
"N N N N N N N N N N N N N N N N N N N N V < 1 z.z.z.z.6 > % # m N N N N N N B B N B N N N N N N N N ",
"N N N N N N N N N N N N N N N N N N N M 9 1 4 4 4 5 4 5 4 >   e B N N N N B D G B B N N N N N N N N ",
"N N N N N N N N N N N N N N N N N m M 0 > c x.x.c.z.c.z.z.5 X 0 m B N N N D G V.G M N N N N N N N N ",
"N N N N D N N N N N N N N N N M C Z O.y , S Z.H.V.C Z.V.A z > 9 s f n N N B p.K.B.B.B N N N N N N N ",
"N N F G N N ....N N N N N N C } 2.2._ a t Z F.G.S.i.D.G.i.n 2 3 &.%.^ e N C.C.D G p.N N B N B B N N ",
"N N N B D ..T.2XF N N N m } $.e.2.$.u @ A p.I.A.S.C.D.F.C.u.t $ ) l.5.q h i.V.B N M N N N B N N N N ",
"N N N N ../.L.n.F D N V $.l.8.#.| j.f.; u.G.I.I.p.S.I.a.S.C.d d j.a.#.O.O.p t m N N N N M N N N N N ",
"N N N D D L.L./...M Z 5.Q.5.&.7.) R.0Xg.A.C.D.A.A A.C.g.d.F.A.(.0X| %.&.&.8.O.w b N N N N N N N N N ",
"N N D L.n.T.E.L.F C 5.!.5.&.k.W.l.| j.a.h p.G.H.D.u.a.9Xj.P.d.R.f.5.k.W.O.&.W.@.0 M N N N N N N N M ",
"N N N D H T...M C $.2.2.2.k.k.Q.!.h.].Y.h u.I.I.u.a.(.aX).a.A./.r.8.e.Q.Q.&.&.2.^ w M N N N N N N N ",
"N N N N N M N m *.Q.8.%.k.Q.Q.!.;Xr._.Y.y.d i.u.l R.pX9Xj.l F.N.'.Q.k.r.k.k.` 8.Q.O.t M N N N N N N ",
"N N N N N N N } k.8.1.k.!.Q.Q.:Xq.<.% F i.: Y d g.pX8X) - l G.g Q e.W.k.e.k.7.#.k.k.u n N N N N N N ",
"N N N N N N m $.e.1.7.!.!.>X>X0.[ Q U Z u.4X[.U (.sXj.E qXf.i.s :.}.M.;XW.e.k.2.&.k.! e B N N N N N ",
"N N N D m V g O.%.( 2.e.>X>XM.-.o.0.t.Q o /.[.%XdXdXdX[.qX( o <.@X+X'. X>Xk.8.1.` 1.O.i V v m B N N ",
"N N N M  .8.7.4.2.1.1.2.2.2.0.<.q.t.r.0.J #.8XdXfXsXfXiX8X- W q.|.$XXX}.].1.2.8.5.7.5.5.7.#.0 n N N ",
"N N N M 8.!.Q.Q.W.e.e.k.e.w.9.q.m.t.6.+X>.w R.pXaXaXaX9Xs.9 >.#Xr..X@X'.,X;XQ.k.Q.;X<X;X;X4.+ & M N ",
"N N N C 7.Q.:X5X,XM.k.e.W.r.9.}.}.m.r.>.] a ; g.(.(.(.} 0 ] U ,.e.t.@Xt. X,Xk.Q.;X7XwX5X<X7.+ + M N ",
"N N N C 8.~.7XuXrX:XW.e.k.w.0.}..X+X-.I @X+.1 8 8 8 8 8 < 6Xw.U <.].,X].].,Xk.!.>XrXuXrX6X5.+ @ m D ",
"N N N C 7.<X*XrXtX5XW.Q.>X0.q..XXXq.-.Q U y 2 7 4 4 7 7 a U U T W q..X@X.X1Xk.>X<XwXuXuX7X8.+ @ m M ",
"N N N C 8.<XeXyXrX,XQ.Q.>X0.0.oX@X,.0./.[ 7 s 9 B.U.D y x K M.4X-.0..X@X].<X!.k.>XwXyXwX<X5.. @ M N ",
"N N N m h.:X<X7X6X!.!.Q.>X0.3..X@Xm.M.!.[ P x s n.U...s ' P w.2X'.].oX$X.X<X!.k.Q.<X6X<X>Xh.. @ M N ",
"N N N C W.^.^.!.>X!.!.Q.Q.3.<. XoXoXq.>.I K ' ' P v.' v.{ L ;.>.}..XoX+X}.;X!.>X^.^.^.!.>X5.. O m M ",
"N N D m h.2X>X>X>XQ.5.5.6.<.<. X,X X.X-X{.J P { b.b.b.v.L L *X*XoXXX+X+X].6.4.5.h.^.^.k.>X5.. O M N ",
"N N N n O.7.5.4.1.%.h.k.Q.|.6.|.oXoX.XOX=.Q L L P L P L W -.:.{.$X$X@XXXoXr.h.%.` 1.1.1.4.) . O m N ",
"N N N n ( o.o.O.( k 8.Q.k.:X|.t.oX:X|.>.Q <.-.=.OX#X_.=.-.3.-.{.&X%X}.oX,Xe.k.4./ _ O._ o.T . # M M ",
"N N N n ^ T 5.l.4.) &.Q.W.Q.:XoXoXoX X'.-.-.-.OX-X-X=X_.-.-.`.+X$X.X.X@X;Xk.k.@.#.k.W.5./ Y . r N N ",
"N N F K.A f 1.k.e.4./ k.!.Q.!.,X,X+XoX,X'.:.,.@X&X&XtX#X:.:.+X@X.X+X5X,XQ.k.5.Y 4.W.!.%.& & e N N N ",
"N N N p.C.K.! k.k.8.O.O.W.!.!.!.,X,XoX.X@X@X$X%X%X%X7X%X5X@X.X.X,X5X,X!.;Xk./ ( e.Q.k.u o e D N N N ",
"N N N N D G d 1.W.e.@.T 1.6.!.!.;X;X,X.X}..X$X%X$X@XoX.XoX]. X5X5X:X>X!.Q._ i ) 8.Q.%.@ O m N N N N ",
"N N N N N M n ^ 7.6.4./ ` &.W.!.!.!.!.:X|.}.%X$X X|.|.M.r.|.,X,X:X!.>Xk.@.p O.@.&.5.u . 0 N N N N N ",
"N N N N N N N f ` W.Q.W.%.) 7.Q.!.!.Q.Q.e.;X6X3X<X,X,X:X;Xr.;X>X>X>Xk.` T O.7.7.4.T @ * N N N N N N ",
"N N N N N N N n p 6.Q.W.k.2.) @.8.W.^.k.h.!.!.^.;X,X;X!.Q.5.Q.^.k.6._ Y @.e.e.7.) = & m N N N N N N ",
"N N N N N N N N n ) 7.Q.Q.!.7.) ) O.2.7.8.!.!.:X7X7X5X:XQ.5.h.&.( T ! %.8.e.7.O.y # g M N N N N N N ",
"N N N N N N N N N g ( 4.Q.>Xk.7.%.Y ! ! 5.^.!.3XyXuX7X<X!.*.Y Y j 1.7.8.e.7.) u & r N N N N N N N N ",
"N N B N N N N N N N g ^ 1.5.8.Q.k.7.` ~ h.>X>X<XrXtX7X2X>X*.j %.7.Q.!.e.6.( y 0 n B N N N N N N N N ",
"N N N F N N N N N N N v p / 2.e.l.Q.k.5.h.^.>X4X6X6X3X:X>X2.%.k.Q.W.7.) p = q M B B N N N N N N N N ",
"N N N B N N N N N N N N m t / o.<.1.8.2.*.!.!.!.Q.Q.Q.!.!.#.` 8.%.O.p : ; r M N M N N N N N N N N N ",
"N N N N N N N N N N N N N N v i p T _ T / 1.@.+.@.<.o.@.<.j i ! p u = e M N N N N N N N N N N N N N ",
"N N N N N N N N N N N N N N N N f f u q T @.o.o._ o.o._ _ i = 0 0 e v N N N N N N N N N N N N N N N ",
"N N N N N N B N N N N N N N N N N N n m k ( Y R R R ( R _ : O v M B N N N N N N N N N N N N N N N N ",
"N N N N N N N N N N N D B N N N N N N N g w w d f w w w w 0 r N B N N N N N N N N N N N N N N N N N ",
"N N N N N N N N N N ..E.G N N N N N N N B B N N G p.p.B N N N B B N B B M N N N N N N N N N M N N N ",
"N N N N N N N N N N L.T.N N N N N N N N B B N N G K.p.N N N N B B B n.N N N N N N N N N N N N N N N ",
"B B B B B N N N N N N D N N N N N N N N N N N B K.V.M N N N B H L.n.T.N N N N N N N N N N N N N N G ",
"B G L.G N B N N N N N N N N N N N N N N N N B B V.D N N N N N H /.J.D N N N N N N N N N N N N N N N ",
"N ../.X.N G G B N N N N N N N N B N N N N N N N M N N N N N N N ..D N N N N N N N N N N N N N N N N ",
"N F X.D F Y.H M N N N N N N N F F C.B.N N N N N N M N G N N N N M N N N N N N N N N N N N N N N N M "
};
