/* XPM */
static char *result[] = {
/* columns rows colors chars-per-pixel */
"50 50 196 2 ",
"   c #B8B0AA",
".  c #807266",
"X  c #76685A",
"o  c #776A5C",
"O  c #786B5D",
"+  c #796B5E",
"@  c #786A5D",
"#  c #75685A",
"$  c #796C5F",
"%  c #786B5E",
"&  c #75685B",
"*  c #76695B",
"=  c #76695C",
"-  c #75695C",
";  c #786B5F",
":  c #74675A",
">  c #746759",
",  c #76685B",
"<  c #746658",
"1  c #736658",
"2  c #736657",
"3  c #756759",
"4  c #746659",
"5  c #756659",
"6  c #988C83",
"7  c #DFDDDB",
"8  c #81786D",
"9  c #939188",
"0  c #8E8C83",
"q  c #8E8C82",
"w  c #8C8A80",
"e  c #8B897F",
"r  c #8A887E",
"t  c #87857A",
"y  c #8A887D",
"u  c #8D8B81",
"i  c #87857B",
"p  c #88867B",
"a  c #89877C",
"s  c #8E8D83",
"d  c #929188",
"f  c #817B72",
"g  c #8B8077",
"h  c #828077",
"j  c #949289",
"k  c #8F8D84",
"l  c #807D76",
"z  c #5D4F41",
"x  c #7C7970",
"c  c #929086",
"v  c #8B897E",
"b  c #88867A",
"n  c #8D8B82",
"m  c #7B776E",
"M  c #5C4D3E",
"N  c #7B786F",
"B  c #79756C",
"V  c #5C4E3F",
"C  c #8D8A81",
"Z  c #78756B",
"A  c #5D4E40",
"S  c #5E4F40",
"D  c #8B8980",
"F  c #88867C",
"G  c #5E4F41",
"H  c #89877D",
"J  c #78756C",
"K  c #5F5041",
"L  c #5F5042",
"P  c #7A786F",
"I  c #8D8B80",
"U  c #8F8D83",
"Y  c #8E8B82",
"T  c #8D8A82",
"R  c #8F8C84",
"E  c #8D8B83",
"W  c #87847B",
"Q  c #736F67",
"!  c #79756E",
"~  c #7A766D",
"^  c #8A887F",
"/  c #848177",
"(  c #757068",
")  c #79746D",
"_  c #7F7B72",
"`  c #908E84",
"'  c #8C8A81",
"]  c #848178",
"[  c #62594D",
"{  c #635345",
"}  c #7E7B72",
"|  c #605548",
" . c #655649",
".. c #7F7C73",
"X. c #8C8A7F",
"o. c #7A776F",
"O. c #86847A",
"+. c #787266",
"@. c #756B5E",
"#. c #828075",
"$. c #766F63",
"%. c #776E61",
"&. c #848278",
"*. c #7D7A72",
"=. c #8E8C84",
"-. c #5F5142",
";. c #7E7C73",
":. c #8E8C81",
">. c #89877B",
",. c #908E85",
"<. c #7B7970",
"1. c #605143",
"2. c #79776E",
"3. c #615245",
"4. c #79766D",
"5. c #7E7C74",
"6. c #645649",
"7. c #79766C",
"8. c #615345",
"9. c #79756B",
"0. c #88867E",
"q. c #8C8981",
"w. c #88857D",
"e. c #88857E",
"r. c #89867E",
"t. c #706B62",
"y. c #767169",
"u. c #7A756D",
"i. c #837F76",
"p. c #706C63",
"a. c #7C7870",
"s. c #86837A",
"d. c #604F41",
"f. c #7A766C",
"g. c #807D73",
"h. c #5F5347",
"j. c #635346",
"k. c #7D796D",
"l. c #7B7467",
"z. c #848277",
"x. c #858378",
"c. c #7C776B",
"v. c #7C7669",
"b. c #918F86",
"n. c #939189",
"m. c #5D4E3F",
"M. c #939089",
"N. c #7A776E",
"B. c #5C4D3F",
"V. c #5C4C3E",
"C. c #929089",
"Z. c #929087",
"A. c #5B4B3D",
"S. c #747168",
"D. c #908E86",
"F. c #8B8A7F",
"G. c #918F87",
"H. c #747067",
"J. c #5A4A3C",
"K. c #858379",
"L. c #929088",
"P. c #908E87",
"I. c #8D8A83",
"U. c #8A8780",
"Y. c #898680",
"T. c #87847D",
"R. c #86837C",
"E. c #86827B",
"W. c #86837B",
"Q. c #88867F",
"!. c #85827B",
"~. c #85817A",
"^. c #84817A",
"/. c #848179",
"(. c #838079",
"). c #87847E",
"_. c #87857E",
"`. c #8A8781",
"'. c #8B8882",
"]. c #8E8C85",
"[. c #8C8A82",
"{. c #7A786E",
"}. c #625345",
"|. c #857E73",
" X c #7C7871",
".X c #7B7770",
"XX c #7C7972",
"oX c #7A756E",
"OX c #7A756F",
"+X c #7A766F",
"@X c #79766F",
"#X c #7D7A73",
"$X c #84827A",
"%X c #87837A",
"&X c #827569",
"*X c white",
/* pixels */
"  . X o O + @ # # # # o $ $ % & & & & & & & & & & & * = - - ; = # : > = O , < 1 1 1 2 # , 3 4 5 6 7 ",
"8 9 0 q w e r t t t t y q u r t t t t t t t t t t t t t t i r p t t a u e a t t t t t r w s s d f g ",
"h j q y t t t t t t t t p p t t t t t t t t t t t t t t t t t t t t i p t t t t t t t t p w u k l z ",
"x c q v t t t t t t t t t t t t t t t t t t t t t t t t t t t t t t t t t t t t t t t t t b a n m M ",
"N k w p t t t t t t t t t t t t t t t t t t t t t t t t t t t t t t t t t t t t t t t t t t p 0 B V ",
"N C p t t t t t t t t t t t t t t t t t t t t t t t t t t t t t t t t t t t t t t t t t t t t v Z A ",
"N w t t t t t t t t t t t t t t t t t t t t t a a p t t t t t t t t t t t t t t t t t t t t t v Z S ",
"N w t t t t t t t t t t t t t t t t t t t t t w q a t t t t t t t t t t t t t t t t t t t t t v Z S ",
"N D t t t t t t t t t t t t t t t t t t t t t r u w F t t t t t t t t t t t t t t t t t t t t v Z G ",
"N D t t t t t t t t t t t t t t t t t t t t t t p H p t t t t t t t t t t t t t t t t t t t t v J G ",
"N D t t t t t t t t t t t t t t t t t t t t t t t t t t t t t t t t t t t t t t t t t t t t t v Z K ",
"N D t t t t t t t t t t t t t t t t t t i t t t t t t t t t t t t t t t t t t t t t t t t t t v Z L ",
"N D t t t t t t t t t t t t t t t t t p e p t t t t t t t t t t t a y a t p a t t t t t t t t v Z L ",
"P D t t t t t t t t t t t t t p p p t t a t t t t t t t t t t p I U U e t p v t t t t t t t t v Z L ",
"P D t t t t t t t t t t t t w Y T D a t t t t t t t t t t t p u R E 0 q e t t t t t t t t t t v Z L ",
"P D t t t t t t t t t t t a W Q ! ~ ^ t t t t t t t t t t t y / ( ) _ ` H t t t t t t t t t t v Z L ",
"P ' a t t t t t t t t t t F ] [ { B D t t t t t t t t t t t y } |  ...X.t t t t t t t t t t t v Z L ",
"o.E u p t t t t t t t t t p O.+.@.#.F t t t t t t t t t t t p / $.%.&.F t t t t t t t t t t t v Z L ",
"*.=.u r t t t t t t t t t t t p F t t t t t t t t t t t t t t t p p t t t p p t t t t t t t t v Z L ",
"h k q u a t t t t t t t t t t t t t t t t t t t t t t t t t t t t t t t t v u a t t t t t t t v Z -.",
"h k q X.p t t t t t t t t t t t t t t t t t t t t t t t t t t t t t t t t a v H t t t t t t t v Z -.",
";.k :.>.t t t t t t t t t t t t t t t t t t t t t t t t t t t t t t t t t t p e p t t t t t t v B -.",
"N E a t t t t t t t t t t t t t t t t t t t t t t t t t t t t t t t t t t t t F t t t t t t a w Z L ",
"o.n H t t t t t t t t t t t t t t t t t t t t t t t t t t t t t t t t t t t t t t t t t t t e n Z L ",
"o.T r t t t t t t t t t t t t t t t t t t t t t t t t t t t t t t t t t t t t t t t t t t p w ` B L ",
"o.^ t t t t t t t t t t t t t t t t t t t t t t t t t t t t t t t t t t t t t t t t t t t v u ,.<.1.",
"2.^ t t t t t t t t t t t t t t t t t t t t t t t t t t t t t t t t t t t t t t t t t t t t X.,.*.3.",
"4.^ t t t t t t t t t t t t t t t t t t t t t t t t t t t t t t t t t t t t t t t t t t p i a U 5.6.",
"7.^ t t t t t t t t t t t t t t t t t t t t t t t t t t t t t t t t t t t t t t t t t t v a t w N 8.",
"7.^ t t t t t t t t t t t t t p a v a t t t t t t t t t t t t t t t t t t t t t t t t t p t t v Z L ",
"7.^ t t t t t t t t t t t t p ' k k y t t t t t t t t t t t t p a a p t t t t t t t t t t t t e 9.L ",
"4.D t t t t t t t t t t t t e 0.q.T r t t t t t t t t t t t p e w.e.r.a t t t t t t t t t t y k 7.L ",
"4.D t t t t t t t t t t t a W t.y.u.w t t t t t t t t t t t y i.p.y.a.e t t t t t t t t t t H 0 ~ L ",
"7.n H t t t t t t t t t t a s.[ d.f.e t t t t t t t t t t t y g.h.j...e t t t t t t t t t t t v 7.L ",
"7.0 X.t t t t t t t t t t t O.k.l.z.F t t t t t t t t t t t p x.c.v.x.p t t t t t t t t t t t v Z K ",
"7.n r t t t t t t t t t t t t p p t t t t t t t t t t t t t t t p p t t t t t t t t t t t t p 0 B G ",
"4.D t t t t t t t t t t t t t t t t t t t t t t t t t t t t t t t t t t t t t t t t t t t t F ,.B G ",
"4.D t t t t t t t t t t t t t t t t t i r F t t t t t t t t t t t t t t t t t t t t t t t t t u B G ",
"4.w t t t t t t t t t t t t t t t t t p w u p p t t t t t t t t t t t t t t t t t t t t t t t v Z G ",
"N ' t t t t t t t t t t t t t t t t t t p H p v F t t t t t t t t t t t t t t t t t t t t t t v Z S ",
"N n t t t t t t t t t t t t t t t t t t t t t p t t t t t t t t t t t t t t t t t t t t t t t v Z S ",
"x b.a t t t t t t t t t t t t t t t t t t t t t t t t t t t t t t t t t t t t t t t t t t t t v Z S ",
"x n.I p t t t t t t t t t t t t t t t t t t t t t t t t t t t t t t t t t t t t t t t t t t t v Z A ",
"x n.q a t t t t t t t t t t t t t t t t t t t t t t t t t t t t t t t t t t t t t t t t t t t v 9.m.",
"x M.y t t t t t t t t t t t t t t t t t t t t t t t t t t t t t t t t t t t t a p t t t t t t w N.B.",
"x n.e p t t t t t t t t t t t t t t t t t t t t t t t t t t t t t t t t t t p u u a t t t t p q x V.",
"N C.q X.p t t t t t t t t v X.a t t t t t t t t t t t t t t t t t t t t t t t a v y t t p t v Z.x A.",
"S.D.n.Z.Z.q w w w F.e v r k ,.q r r r y H H H H y y r r v v v v v v e e e e e e e e e w ,.,.b.G.H.J.",
"K.L.P.I.U.Y.Y.Y.Y.w.T.R.E.W.0.Q.!.~.~.^./.(.(././.^.!.E.W.W.R.R.W.R.R.R.R.R.T.)._._.Q.`.`.'.].[.{.}.",
"|.E 5. X! ! ! ! ! ! ! ! ! ! .XXXoXoXoXOX+X+X+X+XOXOXoX! ! ! ! ! ! ! ! ! ! ! +X+X+X+X+X@X! +X#X$X%X&X"
};
